:version 1.10
:name ASF
:units
  mass 1
  length 1
  angle deg
:documentation
  ASF file generated by Kaydara
:root
  axis xyz
  order  tx ty tz rx ry rz
  position 0 0 0
  orientation 0 0 0
:bonedata
  begin
    id 1
    name lfemurDummy
    direction 0.61522 -0.761478 0.204097
    length 5.68318
    axis 0 -0 0 xyz
  end
  begin
    id 2
    name lfemur
    direction 0.34202 -0.939693 -5.84747e-008
    length 16.9147
    axis 0 -0 20 xyz
    dof rx ry rz
    limits( -inf , inf )
( -inf , inf )
( -inf , inf )

  end
  begin
    id 3
    name ltibia
    direction 0.34202 -0.939693 1.20839e-009
    length 18.0532
    axis 0 -0 20 xyz
    dof rz ry rx
    limits( -inf , inf )
( -inf , inf )
( -inf , inf )

  end
  begin
    id 4
    name lfoot
    direction 0.0841971 -0.23133 0.969225
    length 5.23822
    axis -90 7.62852e-016 20 xyz
    dof ry rx rz
    limits( -inf , inf )
( -inf , inf )
( -inf , inf )

  end
  begin
    id 5
    name ltoes
    direction 0 0 0
    length 0
    axis 0 0 0 xyz
    dof rz ry rx
    limits( -inf , inf )
( -inf , inf )
( -inf , inf )

  end
  begin
    id 6
    name rfemurDummy
    direction -0.625247 -0.75382 0.202044
    length 5.74091
    axis 0 -0 0 xyz
  end
  begin
    id 7
    name rfemur
    direction -0.34202 -0.939693 -1.47013e-008
    length 16.4922
    axis 0 -0 -20 xyz
    dof rx ry rz
    limits( -inf , inf )
( -inf , inf )
( -inf , inf )

  end
  begin
    id 8
    name rtibia
    direction -0.34202 -0.939693 -7.74345e-010
    length 18.2421
    axis 0 -0 -20 xyz
    dof rz ry rx
    limits( -inf , inf )
( -inf , inf )
( -inf , inf )

  end
  begin
    id 9
    name rfoot
    direction -0.124331 -0.341598 0.931586
    length 5.45787
    axis -90 -7.62852e-016 -20 xyz
    dof ry rx rz
    limits( -inf , inf )
( -inf , inf )
( -inf , inf )

  end
  begin
    id 10
    name rtoes
    direction 0 0 0
    length 0
    axis 0 0 0 xyz
    dof rz ry rx
    limits( -inf , inf )
( -inf , inf )
( -inf , inf )

  end
  begin
    id 11
    name lowerbackDummy
    direction 0 0 0
    length 0
    axis 0 -0 0 xyz
  end
  begin
    id 12
    name lowerback
    direction -0.0218484 0.994884 -0.0986304
    length 4.45607
    axis 0 -0 0 xyz
    dof rx ry rz
    limits( -inf , inf )
( -inf , inf )
( -inf , inf )

  end
  begin
    id 13
    name upperback
    direction -0.00973057 0.999717 -0.0217111
    length 4.47449
    axis 0 -0 0 xyz
    dof rx ry rz
    limits( -inf , inf )
( -inf , inf )
( -inf , inf )

  end
  begin
    id 14
    name thorax
    direction -0.000928171 0.999699 0.0245198
    length 4.50973
    axis 0 -0 0 xyz
    dof rx ry rz
    limits( -inf , inf )
( -inf , inf )
( -inf , inf )

  end
  begin
    id 15
    name rclavicle
    direction -0.9009 0.425937 -0.0834055
    length 7.28587
    axis 0 -0 0 xyz
    dof rx ry rz
    limits( -inf , inf )
( -inf , inf )
( -inf , inf )

  end
  begin
    id 16
    name rhumerus
    direction -1 -2.23604e-007 -1.42637e-007
    length 13.5704
    axis 180 30 90 xyz
    dof rx ry rz
    limits( -inf , inf )
( -inf , inf )
( -inf , inf )

  end
  begin
    id 17
    name rradius
    direction -1 5.68281e-008 -4.4952e-007
    length 8.06782
    axis 180 30 90 xyz
    dof rz ry rx
    limits( -inf , inf )
( -inf , inf )
( -inf , inf )

  end
  begin
    id 18
    name rwrist
    direction -1 1.51393e-007 1.38143e-007
    length 4.03391
    axis -90 -90 0 xyz
    dof rz rx ry
    limits( -inf , inf )
( -inf , inf )
( -inf , inf )

  end
  begin
    id 19
    name rthumb
    direction 0 0 0
    length 0
    axis 0 0 0 xyz
    dof ry rx rz
    limits( -inf , inf )
( -inf , inf )
( -inf , inf )

  end
  begin
    id 20
    name rhand
    direction -1 -3.34077e-007 -5.59631e-007
    length 1.29744
    axis -90 -90 0 xyz
    dof ry rx rz
    limits( -inf , inf )
( -inf , inf )
( -inf , inf )

  end
  begin
    id 21
    name rfingers
    direction 0 0 0
    length 0
    axis 0 0 0 xyz
    dof rz ry rx
    limits( -inf , inf )
( -inf , inf )
( -inf , inf )

  end
  begin
    id 22
    name lclavicle
    direction 0.940017 0.332249 -0.0773232
    length 8.29589
    axis 0 -0 0 xyz
    dof rx ry rz
    limits( -inf , inf )
( -inf , inf )
( -inf , inf )

  end
  begin
    id 23
    name lhumerus
    direction 1 7.41158e-008 -1.44768e-008
    length 12.0042
    axis 180 -30 -90 xyz
    dof rx ry rz
    limits( -inf , inf )
( -inf , inf )
( -inf , inf )

  end
  begin
    id 24
    name lradius
    direction 1 -1.32972e-007 3.10821e-007
    length 8.1902
    axis 180 -30 -90 xyz
    dof rz ry rx
    limits( -inf , inf )
( -inf , inf )
( -inf , inf )

  end
  begin
    id 25
    name lwrist
    direction 1 3.08957e-007 4.01394e-007
    length 4.09509
    axis -90 90 0 xyz
    dof rz rx ry
    limits( -inf , inf )
( -inf , inf )
( -inf , inf )

  end
  begin
    id 26
    name lthumb
    direction 0 0 0
    length 0
    axis 0 0 0 xyz
    dof ry rx rz
    limits( -inf , inf )
( -inf , inf )
( -inf , inf )

  end
  begin
    id 27
    name lhand
    direction 1 -1.64125e-007 -6.99514e-007
    length 1.37229
    axis -90 90 0 xyz
    dof ry rx rz
    limits( -inf , inf )
( -inf , inf )
( -inf , inf )

  end
  begin
    id 28
    name lfingers
    direction 0 0 0
    length 0
    axis 0 0 0 xyz
    dof rz ry rx
    limits( -inf , inf )
( -inf , inf )
( -inf , inf )

  end
  begin
    id 29
    name lowerneck
    direction -0.030798 0.998024 0.0547665
    length 3.93918
    axis 0 -0 0 xyz
    dof rx ry rz
    limits( -inf , inf )
( -inf , inf )
( -inf , inf )

  end
  begin
    id 30
    name upperneck
    direction 0.0531588 0.996611 -0.0627736
    length 3.95491
    axis 0 -0 0 xyz
    dof rx ry rz
    limits( -inf , inf )
( -inf , inf )
( -inf , inf )

  end
  begin
    id 31
    name head
    direction 0 0 0
    length 0
    axis 0 0 0 xyz
    dof rx ry rz
    limits( -inf , inf )
( -inf , inf )
( -inf , inf )

  end
:hierarchy
  begin
    root lfemurDummy rfemurDummy lowerbackDummy
    lfemurDummy lfemur
    lfemur ltibia
    ltibia lfoot
    lfoot ltoes
    rfemurDummy rfemur
    rfemur rtibia
    rtibia rfoot
    rfoot rtoes
    lowerbackDummy lowerback
    lowerback upperback
    upperback thorax
    thorax rclavicle lclavicle lowerneck
    rclavicle rhumerus
    rhumerus rradius
    rradius rwrist
    rwrist rthumb rhand
    rhand rfingers
    lclavicle lhumerus
    lhumerus lradius
    lradius lwrist
    lwrist lthumb lhand
    lhand lfingers
    lowerneck upperneck
    upperneck head
  end

:SAMPLES-PER-SECOND 30
:FULLY-SPECIFIED
:DEGREES
56
root  17.244755 30.07844339 4.355044628 -24.88299561 -65.52899933 17.00700378
lowerback  24.65789986 2.89654994 -2.986979961
upperback  14.4623003 2.079390049 10.51270008
thorax  2.008559942 -0.1598699987 13.11120033
lowerneck  8.18144989 5.459080219 -0.07042980194
upperneck  14.14120007 6.22465992 6.517119884
head  2.935960054 3.096829891 2.122279882
lclavicle  0 -9.442270133e-015 7.951389973e-016
lhumerus  18.95199966 -4.550839901 89.79109955
lradius  2.264802647e-031 -2.709153559e-031 129.8950043
lwrist  -1.412450015e-030 8.827812596e-032 20.83090019
lhand  -1.496451383e-031 -27.76390076 20.11240005
lfingers  90 7.125020027 -90
lthumb  89.89689403 5.08795885 91.16245106
rclavicle  0 -9.442270133e-015 7.951389973e-016
rhumerus  36.41880035 18.22459984 -69.12069702
rradius  -2.697555024e-032 3.520806159e-031 94.38130188
rwrist  7.062250077e-031 3.531125038e-031 -67.28520203
rhand  -7.920061211e-032 -33.2840004 9.303460121
rfingers  -90 -7.125020027 -90
rthumb  -92.93752616 -24.25625642 -97.11982154
rfemur  -37.16659927 9.091540337 -23.66819954
rtibia  -0 0 87.54109955
rfoot  -0 -14.94270039 15.90769958
rtoes  5.373923086 19.29304026 -105.8922705
lfemur  -32.64730072 4.783209801 -7.479159832
ltibia  -0 0 91.81330109
lfoot  5.55245726e-032 -37.34980011 5.178180218
ltoes  -4.250644065 -19.5611806 -102.515957
57
root  17.15759968 30.25400057 4.373844402 -23.68400574 -65.17099762 15.33299255
lowerback  24.09399986 2.743220091 -3.051100016
upperback  14.24709988 1.918009996 10.4552002
thorax  2.070339918 -0.2198529989 13.11089993
lowerneck  7.981760025 5.587880135 -0.5401390195
upperneck  14.19169998 6.426700115 6.095489979
head  2.978209972 3.172559977 2.070470095
lclavicle  0 -9.442270133e-015 7.951389973e-016
lhumerus  19.23690033 -4.607910156 90.43280029
lradius  2.235020835e-031 -2.733775028e-031 129.2680054
lwrist  -7.062250077e-031 -8.827812596e-032 20.75200081
lhand  -1.496451383e-031 -27.76390076 20.11240005
lfingers  90 7.125020027 -90
lthumb  89.89689403 5.08795885 91.16245106
rclavicle  0 -9.442270133e-015 7.951389973e-016
rhumerus  35.36949921 18.58309937 -69.11599731
rradius  -2.852380901e-032 3.519585667e-031 94.63330078
rwrist  3.531125038e-031 7.062250077e-031 -66.61540222
rhand  -7.920061211e-032 -33.2840004 9.303460121
rfingers  -90 -7.125020027 -90
rthumb  -92.93752616 -24.25625642 -97.11982154
rfemur  -35.77280045 9.261130333 -22.8307991
rtibia  -0 0 86.6855011
rfoot  -0 -14.39379978 16.55900002
rtoes  5.373923086 19.29304026 -105.8922705
lfemur  -31.8946991 4.360370159 -7.056600094
ltibia  -0 0 91.04250336
lfoot  5.552546132e-032 -37.35100174 5.081389904
ltoes  -4.250644065 -19.5611806 -102.515957
58
root  17.06404498 30.45333201 4.384533439 -22.29200745 -64.82900238 13.53300476
lowerback  23.45779991 2.677220106 -2.945470095
upperback  13.98779964 1.915269971 10.35760021
thorax  2.078350067 -0.1747120023 12.9119997
lowerneck  8.230730057 5.664159775 -0.8461840153
upperneck  13.79870033 6.580639839 5.786159992
head  2.793499947 3.224750042 1.996770024
lclavicle  0 -9.442270133e-015 7.951389973e-016
lhumerus  19.60650063 -5.016870022 90.73799896
lradius  2.209733634e-031 -2.754255127e-031 128.7400055
lwrist  -7.062250077e-031 8.827812596e-032 20.76539993
lhand  -1.496451383e-031 -27.76390076 20.11240005
lfingers  90 7.125020027 -90
lthumb  89.89689403 5.08795885 91.16245106
rclavicle  0 -9.442270133e-015 7.951389973e-016
rhumerus  34.31539917 18.60840034 -69.16390228
rradius  -3.09654835e-032 3.517521559e-031 95.03089905
rwrist  3.531125038e-031 1.059337512e-030 -66.00869751
rhand  -7.920061211e-032 -33.2840004 9.303460121
rfingers  -90 -7.125020027 -90
rthumb  -92.93752616 -24.25625642 -97.11982154
rfemur  -34.37369919 9.327770233 -21.80859947
rtibia  -0 0 85.75730133
rfoot  -0 -14.14500046 16.84630013
rtoes  5.373923086 19.29304026 -105.8922705
lfemur  -31.15410042 3.889709949 -6.528890133
ltibia  -0 0 90.13020325
lfoot  5.547606086e-032 -37.28409958 5.210599899
ltoes  -4.250644065 -19.5611806 -102.515957
59
root  16.95611158 30.68688761 4.403377893 -21.24299622 -64.50499725 12.04899597
lowerback  22.7901001 2.662729979 -2.765039921
upperback  13.79389954 1.984689951 10.12279987
thorax  2.163029909 -0.08631680161 12.48569965
lowerneck  8.119449615 5.720779896 -0.832498014
upperneck  13.61349964 6.705269814 5.537650108
head  2.753439903 3.286279917 1.909989953
lclavicle  0 -9.442270133e-015 7.951389973e-016
lhumerus  20.11560059 -5.600739956 90.6710968
lradius  2.189726041e-031 -2.770188424e-031 128.3249969
lwrist  -1.412450015e-030 8.827812596e-032 20.75600052
lhand  -1.496451383e-031 -27.76390076 20.11240005
lfingers  90 7.125020027 -90
lthumb  89.89689403 5.08795885 91.16245106
rclavicle  0 -9.442270133e-015 7.951389973e-016
rhumerus  33.44490051 18.40049934 -69.3914032
rradius  -3.383637708e-032 3.5148761e-031 95.498703
rwrist  3.531125038e-031 3.531125038e-031 -65.60669708
rhand  -7.920061211e-032 -33.2840004 9.303460121
rfingers  -90 -7.125020027 -90
rthumb  -92.93752616 -24.25625642 -97.11982154
rfemur  -32.87559891 9.325380325 -20.82780075
rtibia  -0 0 84.74279785
rfoot  -0 -14.20810032 16.77339935
rtoes  5.373923086 19.29304026 -105.8922705
lfemur  -30.20159912 3.310460091 -6.173860073
ltibia  -0 0 89.04750061
lfoot  5.545146121e-032 -37.2507019 5.471300125
ltoes  -4.250644065 -19.5611806 -102.515957
60
root  16.84566708 30.93599935 4.418311157 -20.49299622 -64.17099762 10.83599854
lowerback  22.82799911 2.869349957 -3.679069996
upperback  13.15610027 2.207340002 10.45230007
thorax  1.344449997 0.0459427014 13.38840008
lowerneck  7.932559967 5.869249821 -1.262660027
upperneck  14.19919968 6.90530014 5.059979916
head  2.982630014 3.361020088 1.852159977
lclavicle  0 -9.442270133e-015 7.951389973e-016
lhumerus  19.73600006 -5.508480072 91.46970367
lradius  2.178685335e-031 -2.778880035e-031 128.0970001
lwrist  -7.062250077e-031 -0 20.31469917
lhand  -1.496451383e-031 -27.76390076 20.11240005
lfingers  90 7.125020027 -90
lthumb  89.89689403 5.08795885 91.16245106
rclavicle  0 -9.442270133e-015 7.951389973e-016
rhumerus  32.30920029 18.96360016 -69.09860229
rradius  -3.687719959e-032 3.511815948e-031 95.99459839
rwrist  7.062250077e-031 3.531125038e-031 -65.7539978
rhand  -7.920061211e-032 -33.2840004 9.303460121
rfingers  -90 -7.125020027 -90
rthumb  -92.93752616 -24.25625642 -97.11982154
rfemur  -31.29450035 9.356579781 -19.9102993
rtibia  -0 0 83.67099762
rfoot  -0 -14.12320042 16.57740021
rtoes  5.373923086 19.29304026 -105.8922705
lfemur  -29.14690018 2.742799997 -5.901060104
ltibia  -0 0 87.83589935
lfoot  5.540656203e-032 -37.1896019 5.538740158
ltoes  -4.250644065 -19.5611806 -102.515957
61
root  16.73884504 31.19000112 4.408110972 -19.68600464 -63.71299744 9.658004761
lowerback  22.19720078 2.932250023 -3.619499922
upperback  12.94309998 2.364510059 10.19830036
thorax  1.371549964 0.1761830002 12.99199963
lowerneck  7.717889786 5.890810013 -1.187479973
upperneck  14.08180046 6.96544981 5.00177002
head  2.981970072 3.399310112 1.82438004
lclavicle  0 -9.442270133e-015 7.951389973e-016
lhumerus  20.42169952 -6.135429859 91.30169678
lradius  2.163131257e-031 -2.791004694e-031 127.7770004
lwrist  -7.062250077e-031 -0 19.98019981
lhand  -1.496451383e-031 -27.76390076 20.11240005
lfingers  90 7.125020027 -90
lthumb  89.89689403 5.08795885 91.16245106
rclavicle  0 -9.442270133e-015 7.951389973e-016
rhumerus  31.70140076 18.43930054 -69.66760254
rradius  -3.949214886e-032 3.50897151e-031 96.42140198
rwrist  3.531125038e-031 1.059337512e-030 -65.90570068
rhand  -7.920061211e-032 -33.2840004 9.303460121
rfingers  -90 -7.125020027 -90
rthumb  -92.93752616 -24.25625642 -97.11982154
rfemur  -29.70700073 9.275239944 -18.93420029
rtibia  -0 0 82.57920074
rfoot  -0 -13.9854002 16.1882
rtoes  5.373923086 19.29304026 -105.8922705
lfemur  -28.21529961 2.185440063 -5.572820187
ltibia  -0 0 86.49559784
lfoot  5.525646994e-032 -36.98400116 5.496250153
ltoes  -4.250644065 -19.5611806 -102.515957
62
root  16.6190215 31.46177878 4.391466726 -18.97599792 -63.22299957 8.554000854
lowerback  21.41769981 2.807960033 -2.291729927
upperback  12.81939983 2.486119986 9.190090179
thorax  1.626799941 0.3864809871 10.93519974
lowerneck  7.680069923 5.827300072 -0.631205976
upperneck  13.62220001 6.887199879 5.557050228
head  2.832720041 3.400449991 1.897930026
lclavicle  0 -9.442270133e-015 7.951389973e-016
lhumerus  21.51840019 -7.429100037 89.87020111
lradius  2.146726922e-031 -2.803641839e-031 127.4410019
lwrist  -7.062250077e-031 -2.648343779e-031 19.95890045
lhand  -1.496451383e-031 -27.76390076 20.11240005
lfingers  90 7.125020027 -90
lthumb  89.89689403 5.08795885 91.16245106
rclavicle  0 -9.442270133e-015 7.951389973e-016
rhumerus  31.2621994 16.96050072 -71.6815033
rradius  -4.272588178e-032 3.505181014e-031 96.9496994
rwrist  3.531125038e-031 -0 -65.34819794
rhand  -7.920061211e-032 -33.2840004 9.303460121
rfingers  -90 -7.125020027 -90
rthumb  -92.93752616 -24.25625642 -97.11982154
rfemur  -28.03450012 9.153039932 -17.8246994
rtibia  -0 0 81.43399811
rfoot  -0 -14.51860046 15.28079987
rtoes  5.373923086 19.29304026 -105.8922705
lfemur  -27.1385994 1.589669943 -5.272250175
ltibia  -0 0 85.01039886
lfoot  5.499823937e-032 -36.62530136 5.924109936
ltoes  -4.250644065 -19.5611806 -102.515957
63
root  16.48813383 31.76044554 4.382244621 -18.22399902 -62.71600342 7.401000977
lowerback  21.06780052 2.843349934 -1.991889954
upperback  12.37919998 2.668580055 8.883720398
thorax  1.281649947 0.5641890168 10.34360027
lowerneck  7.621719837 5.92621994 -0.7446449995
upperneck  13.79139996 6.995659828 5.735290051
head  2.887229919 3.456700087 1.982609987
lclavicle  0 -9.442270133e-015 7.951389973e-016
lhumerus  21.83769989 -7.853590012 89.44480133
lradius  2.141193397e-031 -2.807870167e-031 127.3280029
lwrist  -7.062250077e-031 -0 19.78370094
lhand  -1.496451383e-031 -27.76390076 20.11240005
lfingers  90 7.125020027 -90
lthumb  89.89689403 5.08795885 91.16245106
rclavicle  0 -9.442270133e-015 7.951389973e-016
rhumerus  30.49489975 16.48380089 -72.3506012
rradius  -4.652789981e-032 3.500337054e-031 97.57160187
rwrist  3.531125038e-031 7.062250077e-031 -64.92559814
rhand  -7.920061211e-032 -33.2840004 9.303460121
rfingers  -90 -7.125020027 -90
rthumb  -92.93752616 -24.25625642 -97.11982154
rfemur  -26.26079941 9.021849632 -16.63080025
rtibia  -0 0 80.21269989
rfoot  -0 -15.1619997 14.19379997
rtoes  5.373923086 19.29304026 -105.8922705
lfemur  -25.99679947 0.8665239811 -4.978159904
ltibia  -0 0 83.42340088
lfoot  5.469129806e-032 -36.19049835 6.444409847
ltoes  -4.250644065 -19.5611806 -102.515957
64
root  16.36099928 32.06399933 4.366444415 -17.32200623 -62.22100067 6.220993042
lowerback  20.61000061 2.84397006 -1.57983005
upperback  12.04430008 2.802510023 8.481229782
thorax  1.133370042 0.7094359994 9.596300125
lowerneck  7.169849873 6.027349949 -0.4949760139
upperneck  14.0060997 7.150279999 5.648859978
head  3.047620058 3.553879976 1.937330008
lclavicle  0 -9.442270133e-015 7.951389973e-016
lhumerus  22.38249969 -8.147789955 88.85679626
lradius  2.141634187e-031 -2.807533979e-031 127.336998
lwrist  -7.062250077e-031 1.765562519e-031 19.81909943
lhand  -1.496451383e-031 -27.76390076 20.11240005
lfingers  90 7.125020027 -90
lthumb  89.89689403 5.08795885 91.16245106
rclavicle  0 -9.442270133e-015 7.951389973e-016
rhumerus  30.21479988 16.00309944 -72.94159698
rradius  -4.953373633e-032 3.496210081e-031 98.06390381
rwrist  3.531125038e-031 7.062250077e-031 -64.51270294
rhand  -7.920061211e-032 -33.2840004 9.303460121
rfingers  -90 -7.125020027 -90
rthumb  -92.93752616 -24.25625642 -97.11982154
rfemur  -24.59300041 8.951259613 -15.4861002
rtibia  -0 0 79.00520325
rfoot  -0 -15.32129955 13.55650043
rtoes  5.373923086 19.29304026 -105.8922705
lfemur  -25.00880051 0.08141150326 -4.599460125
ltibia  -0 0 81.79190063
lfoot  5.439812944e-032 -35.7663002 6.330989838
ltoes  -4.250644065 -19.5611806 -102.515957
